<svg data-v-fde0c5aa="" xmlns="http://www.w3.org/2000/svg" viewBox="0 0 300 300" class="iconLeft"><!----><defs data-v-fde0c5aa=""><!----></defs><rect data-v-fde0c5aa="" fill="#626ABB" x="0" y="0" width="300px" height="300px" class="logo-background-square"></rect><defs data-v-fde0c5aa=""><!----></defs><g data-v-fde0c5aa="" id="7b8a23d0-0bc7-434c-842e-21bf3a0d8565" fill="#fff" transform="matrix(3.849014420262894,0,0,3.849014420262894,131.17348816135632,99.3469689813002)"><path d="M0 17.18L0 17.18ZM1.13 19.70L1.13 19.70Q0.17 19.70-0.69 19.47L-0.69 19.47L-0.56 17.72L-0.56 17.72Q0.18 17.72 0.44 17.54L0.44 17.54L0.44 17.54Q0.70 17.36 0.70 16.83L0.70 16.83L0.70 10.53L3.50 10.18L3.50 17.33L3.50 17.33Q3.50 18.55 2.93 19.12L2.93 19.12L2.93 19.12Q2.35 19.70 1.13 19.70L1.13 19.70ZM2.10 9.59L2.10 9.59Q1.51 9.59 1.20 9.46L1.20 9.46L1.20 9.46Q0.88 9.34 0.75 9.02L0.75 9.02L0.75 9.02Q0.62 8.71 0.62 8.12L0.62 8.12L0.62 8.12Q0.62 7.27 0.93 6.94L0.93 6.94L0.93 6.94Q1.25 6.62 2.10 6.62L2.10 6.62L2.10 6.62Q2.94 6.62 3.25 6.94L3.25 6.94L3.25 6.94Q3.57 7.27 3.57 8.12L3.57 8.12L3.57 8.12Q3.57 8.69 3.44 9.01L3.44 9.01L3.44 9.01Q3.30 9.32 3.00 9.46L3.00 9.46L3.00 9.46Q2.69 9.59 2.10 9.59L2.10 9.59ZM8.26 9.97L8.26 9.97Q9.93 9.97 10.70 10.56L10.70 10.56L10.70 10.56Q11.48 11.14 11.48 12.42L11.48 12.42L11.48 17.18L10.08 17.18L9.38 16.48L9.38 16.48Q8.85 16.93 8.24 17.16L8.24 17.16L8.24 17.16Q7.63 17.39 7 17.39L7 17.39L7 17.39Q5.73 17.39 5.14 16.81L5.14 16.81L5.14 16.81Q4.55 16.24 4.55 15.01L4.55 15.01L4.55 15.01Q4.55 14.15 4.91 13.65L4.91 13.65L4.91 13.65Q5.28 13.15 6.08 12.92L6.08 12.92L6.08 12.92Q6.89 12.70 8.26 12.70L8.26 12.70L8.68 12.70L8.68 12.07L8.68 12.07Q8.47 12.01 7.98 12.01L7.98 12.01L7.98 12.01Q6.68 12.01 5.21 12.38L5.21 12.38L4.87 10.44L4.87 10.44Q6.44 9.97 8.26 9.97L8.26 9.97ZM7.71 15.50L7.71 15.50Q8.26 15.50 8.47 15.39L8.47 15.39L8.47 15.39Q8.68 15.27 8.68 14.97L8.68 14.97L8.68 14.10L8.09 14.10L8.09 14.10Q7.55 14.10 7.34 14.22L7.34 14.22L7.34 14.22Q7.13 14.35 7.13 14.69L7.13 14.69L7.13 15.50L7.71 15.50ZM14.21 10.18L14.98 11.10L14.98 11.10Q15.81 10.23 17.05 9.97L17.05 9.97L17.22 12.68L17.22 12.68Q16.90 12.71 16.37 12.90L16.37 12.90L16.37 12.90Q15.83 13.09 15.61 13.24L15.61 13.24L15.61 17.18L12.81 17.18L12.81 10.18L14.21 10.18ZM17.71 12.81L17.71 12.81Q17.71 11.05 18.10 10.06L18.10 10.06L18.10 10.06Q18.49 9.07 19.40 8.65L19.40 8.65L19.40 8.65Q20.30 8.22 21.91 8.22L21.91 8.22L21.91 8.22Q23.52 8.22 24.42 8.65L24.42 8.65L24.42 8.65Q25.33 9.07 25.72 10.06L25.72 10.06L25.72 10.06Q26.11 11.05 26.11 12.81L26.11 12.81L26.11 12.81Q26.11 14.57 25.72 15.55L25.72 15.55L25.72 15.55Q25.33 16.53 24.42 16.96L24.42 16.96L24.42 16.96Q23.52 17.39 21.91 17.39L21.91 17.39L21.91 17.39Q20.30 17.39 19.40 16.96L19.40 16.96L19.40 16.96Q18.49 16.53 18.10 15.55L18.10 15.55L18.10 15.55Q17.71 14.57 17.71 12.81L17.71 12.81ZM20.72 14.99L21.99 14.99L21.99 14.99Q22.62 14.99 22.86 14.83L22.86 14.83L22.86 14.83Q23.10 14.67 23.10 14.25L23.10 14.25L23.10 10.61L21.81 10.61L21.81 10.61Q21.20 10.61 20.96 10.77L20.96 10.77L20.96 10.77Q20.72 10.93 20.72 11.35L20.72 11.35L20.72 14.99ZM26.98 12.33L26.98 12.33Q26.98 11.12 27.73 10.54L27.73 10.54L27.73 10.54Q28.49 9.97 30.10 9.97L30.10 9.97L30.10 9.97Q31.71 9.97 33.12 10.28L33.12 10.28L32.80 12.21L32.80 12.21Q32.13 12.03 31.16 12.03L31.16 12.03L31.16 12.03Q30.44 12.03 29.99 12.17L29.99 12.17L29.99 12.67L29.99 12.67Q31.29 12.81 32.05 13.08L32.05 13.08L32.05 13.08Q32.80 13.34 33.14 13.80L33.14 13.80L33.14 13.80Q33.47 14.27 33.47 14.99L33.47 14.99L33.47 14.99Q33.47 16.24 32.63 16.81L32.63 16.81L32.63 16.81Q31.78 17.39 29.95 17.39L29.95 17.39L29.95 17.39Q29.13 17.39 28.32 17.26L28.32 17.26L28.32 17.26Q27.50 17.14 26.88 16.91L26.88 16.91L27.23 14.90L27.23 14.90Q28.22 15.33 29.47 15.33L29.47 15.33L29.47 15.33Q29.82 15.33 30.46 15.22L30.46 15.22L30.46 14.67L30.46 14.67Q29.08 14.53 28.34 14.29L28.34 14.29L28.34 14.29Q27.59 14.04 27.29 13.59L27.29 13.59L27.29 13.59Q26.98 13.13 26.98 12.33L26.98 12.33Z"></path></g><defs data-v-fde0c5aa=""><!----></defs><g data-v-fde0c5aa="" id="28486a8d-ca5b-4c72-97d4-2301e0e008ff" stroke="none" fill="#fff" transform="matrix(2.359927124722892,0,0,2.359927124722892,40,112.24116600443372)"><path d="M16 32c8.837 0 16-7.163 16-16S24.837 0 16 0 0 7.163 0 16s7.163 16 16 16zM14.817 6.421h2v8.886h8.887v2H14.817V6.421zm-5.959.437h2v14.283h14.283v2H8.858V6.858z"></path></g><!----></svg>